<?xml version="1.0" encoding="utf-8"?>
<!-- Generator: Adobe Illustrator 21.1.0, SVG Export Plug-In . SVG Version: 6.00 Build 0)  -->
<svg version="1.1"
	 id="Calque_1" xmlns:cc="http://creativecommons.org/ns#" xmlns:dc="http://purl.org/dc/elements/1.1/" xmlns:inkscape="http://www.inkscape.org/namespaces/inkscape" xmlns:rdf="http://www.w3.org/1999/02/22-rdf-syntax-ns#" xmlns:sodipodi="http://sodipodi.sourceforge.net/DTD/sodipodi-0.dtd" xmlns:svg="http://www.w3.org/2000/svg"
	 xmlns="http://www.w3.org/2000/svg" xmlns:xlink="http://www.w3.org/1999/xlink" x="0px" y="0px" viewBox="0 0 100 125"
	 style="enable-background:new 0 0 100 125;" xml:space="preserve">
<style type="text/css">
	.st0{fill:#FFFFFF;}
</style>
<g transform="translate(0,-952.36218)">
	<path class="st0" d="M73.3,979c-2-2-5.1-2-7.1,0L50,995.3L33.7,979c-2-2-5.1-2-7.1,0s-2,5.1,0,7.1l16.3,16.3l-16.3,16.3
		c-2,2-2,5.1,0,7.1s5.1,2,7.1,0l16.3-16.3l16.3,16.3c2,2,5.1,2,7.1,0s2-5.1,0-7.1l-16.3-16.3l16.3-16.3
		C75.3,984.1,75.3,981,73.3,979L73.3,979z"/>
</g>
</svg>
