<svg xmlns="http://www.w3.org/2000/svg" viewBox="0 0 45.82 36.1"><defs><style>.cls-1{fill:#c09b78;}</style></defs><title>Fichier 1</title><g id="Calque_2" data-name="Calque 2"><g id="Calque_1-2" data-name="Calque 1"><path id="Fill-11" class="cls-1" d="M0,19.28l.57-.1c.36-.06.45-.16.45-.89V15.86C1,15.14.94,15,.57,15L0,14.87V14.7H3.33v.17l-.57.1c-.36.06-.44.16-.44.88v2.43c0,.73.08.83.44.89l.57.1v.17H0Z"/><path id="Fill-13" class="cls-1" d="M6.23,20.78h-.5v-.33h.41c.91,0,2-.38,2-1.42S6.94,17.57,6,17.46l.41-2.76H7.74c.91,0,1,0,1.09-.24l.07-.17.22,0L8.87,15.6H6.74l-.15,1c1.35.17,2.64.8,2.64,2.13s-1.68,2.08-3,2.08"/><path id="Fill-15" class="cls-1" d="M37.68,14.63c0-.57-.33-1-.81-1a.78.78,0,0,0-.72.85c0,.66.52,1,1,1.29a1.46,1.46,0,0,0,.55-1.18m0,3.46c0-.78-.74-1.2-1.31-1.59A1.64,1.64,0,0,0,35.74,18c0,.7.37,1.26,1,1.26a1,1,0,0,0,.94-1.13M34.76,18a1.9,1.9,0,0,1,1.3-1.62,1.71,1.71,0,0,1-1-1.46A1.67,1.67,0,0,1,37,13.32a1.45,1.45,0,0,1,1.63,1.32c0,.72-.65,1.08-1.15,1.33a2.2,2.2,0,0,1,1.37,1.8,1.91,1.91,0,0,1-2.09,1.81c-1,0-2-.49-2-1.62"/><path id="Fill-17" class="cls-1" d="M41.36,19.46v-.57a8.61,8.61,0,0,0,1.33-.81,2.38,2.38,0,0,0,1.15-1.7,1.1,1.1,0,0,0-1.14-1.06,1.6,1.6,0,0,0-1.19.49l-.2-.22a2.56,2.56,0,0,1,2.09-1.07A1.66,1.66,0,0,1,45.15,16a2.37,2.37,0,0,1-1.25,1.75c-.45.3-1.12.75-1.44.93h1.64c.91,0,1.2-.14,1.35-.51l.14-.32.22,0-.31,1.54Z"/><path id="Fill-19" class="cls-1" d="M23.59,26.19h0l.11-.88A3.93,3.93,0,0,1,26.63,29v6.08l-.12,0-.62.08V29.4a3.4,3.4,0,0,0-2.29-3.21ZM19.12,29.4v5.76l-.62-.08-.12,0V29A3.92,3.92,0,0,1,21.3,25.3l.11.86v0a3.4,3.4,0,0,0-2.29,3.21Zm-8.44,2.34h0a27.64,27.64,0,0,0,5.41,1.89h0l.09-.4h0a27.18,27.18,0,0,1-5.29-1.84l.53-.85h0A26.06,26.06,0,0,0,14.1,31.6h0l.13-.39h0a25.64,25.64,0,0,1-2.58-1l.47-.76h0a24.72,24.72,0,0,0,3.82,1.37h0l.11-.4h0a24.3,24.3,0,0,1-3.72-1.33l.54-.86a23.43,23.43,0,0,0,5.08,1.61V35a28.38,28.38,0,0,1-7.78-2.43Zm2.74-5.51c.76.28,1.56.53,2.37.75h0l.06-.41h0c-.81-.22-1.61-.47-2.37-.76h0L13.6,25a31.2,31.2,0,0,0,3.56.89h0l.06-.41h0a30.76,30.76,0,0,1-3.56-.9h0L15.6,11.44h0a19.45,19.45,0,0,1,2.16-.67h0l-.08-.4h0a19.59,19.59,0,0,0-2,.62l.15-1h0A20.63,20.63,0,0,1,19,9.16h0l-.08-.4h0a20.88,20.88,0,0,0-3,.75L16,8.66l-.28-1,1-.27.26.88q.44-.12.95-.22l-.17-.89,1-.18.17.89,1-.11-.09-.9,1.05-.09.08.91,1,0V6.78H23v.91l1,0,.08-.91,1.05.09-.09.9,1,.11L26.17,7l1,.18L27,8.1c.33.07.65.14.95.22l.26-.88,1,.27-.28,1,.13.84a20.92,20.92,0,0,0-3-.75h0L26,9.12v0h0a20.58,20.58,0,0,1,3.14.79h0l.15,1a19.79,19.79,0,0,0-2-.62h0l-.08.4h0a19.37,19.37,0,0,1,2.16.67h0l1.94,13.12h0a30.76,30.76,0,0,1-3.56.9h0l.06.41h0A31.21,31.21,0,0,0,31.4,25l.12.83h0c-.77.28-1.57.54-2.37.76h0l.06.41h0c.81-.22,1.61-.47,2.37-.75l.12.82A21.84,21.84,0,0,1,27,28.56a4.35,4.35,0,0,0-3.26-3.69l.06-.51H21.18l.06.51A4.35,4.35,0,0,0,18,28.56h0A21.88,21.88,0,0,1,13.3,27ZM15,6.74l-.38-.66a24.68,24.68,0,0,1,3.22-.84h0l-.08-.41h0a25,25,0,0,0-3.35.87h0L14.1,5l.9-.29h0l-.12-.39h0l-1,.31h0c-.09-.18-.58-1.16-1-2.14.79-.28,1.6-.53,2.41-.75L15.79,4s1.35-.35,2.61-.55C18.32,3,18,1.2,18,1.2A28.89,28.89,0,0,1,21.12.88l.06,2.28s.81,0,1.33,0,1.33,0,1.33,0L23.89.88A28.88,28.88,0,0,1,27,1.2S26.68,3,26.6,3.44c1.25.2,2.61.55,2.61.55l.52-2.23c.82.21,1.63.46,2.41.75-.46,1-1,2-1,2.14h0l-1-.31h0L30,4.73h0l.9.29-.37.68h0a25,25,0,0,0-3.35-.87h0l-.07.41h0a24.66,24.66,0,0,1,3.22.84L30,6.74A24.37,24.37,0,0,0,22.7,5.64h-.39A24.36,24.36,0,0,0,15,6.74ZM32.67,29.07A24.29,24.29,0,0,1,29,30.4h0l.11.4h0a24.77,24.77,0,0,0,3.83-1.37h0l.47.76a25.68,25.68,0,0,1-2.58,1h0l.13.39h0a26.06,26.06,0,0,0,2.67-1.06h0l.53.85a27.21,27.21,0,0,1-5.29,1.84h0l.09.4h0a27.67,27.67,0,0,0,5.41-1.89h0l.51.82A28.36,28.36,0,0,1,27.05,35V29.83h0a23.43,23.43,0,0,0,5.08-1.61Zm-10.73-2-.29-2.28h1.71l-.29,2.28ZM36,32.91l-3.44-5.53L29.83,8.57,30.19,8l.58-1a54.6,54.6,0,0,0,2.52-5A31.08,31.08,0,0,0,29.14.76l-.55,2.33-1.06-.22L28,.51A31.44,31.44,0,0,0,23.09,0c0,.5-.05,2.41-.05,2.41H22S21.92.5,21.91,0A31.45,31.45,0,0,0,17,.51l.44,2.36-1.06.22L15.86.76A31.12,31.12,0,0,0,11.71,2a55,55,0,0,0,2.52,5c.19.33.38.66.58,1l.36.57L12.4,27.37,9,32.91A29.4,29.4,0,0,0,20,36.1V29.4a2.56,2.56,0,0,1,1.56-2.34h0c0,.07.05.39.05.39v0h1.85v0l0-.37v0A2.56,2.56,0,0,1,25,29.4v6.7a29.39,29.39,0,0,0,11-3.19Z"/><path id="Fill-21" class="cls-1" d="M20.38,16l.07-1.7h.69l1.13,0c0,.28,0,1.55,0,1.74H20.38Zm1.92-6.58c0,.9,0,1.61,0,2.31-.55,0-1.31,0-1.71.07a4.91,4.91,0,0,1,1.72-2.37Zm2.13,2.37c-.4,0-1.16-.06-1.71-.07,0,0,0-1.75,0-2.31a4.92,4.92,0,0,1,1.72,2.37ZM22.73,16h0c0-.1,0-.47,0-.85s0-.75,0-.89l1.14,0h.69c0,.23.06,1.43.07,1.7Zm-2.19-3.79c.65,0,1.18-.07,1.74-.07,0,.21,0,1.29,0,1.71l-1.09,0-.72,0,.07-1.68Zm3.27,1.66-1.09,0c0-.28,0-.84,0-1.26,0-.21,0-.39,0-.46.56,0,1.09,0,1.74.07h0l.07,1.68-.72,0ZM22,17.39h1c0-.26,0-.52,0-.52h3.43L26.34,16h-.82l-.22-3.5.76.09L26,11.75l-.8-.09C24.77,10,22.5,8.21,22.5,8.21S20.24,10,19.79,11.66l-.8.09-.07.85.76-.09L19.48,16h-.81l-.07.85H22s0,.27,0,.52Z"/><path id="Fill-23" class="cls-1" d="M26.36,18.83c0,.83.09,1.51.14,2.2l-1.15.12V21a3,3,0,0,1,1-2.21M28,20.67v.12h0L26.91,21c0-.68-.09-1.36-.15-2.17A2.46,2.46,0,0,1,28,20.67m-1,2.49-.12-1.78,1.13-.18L28.23,23l-1.17.19m-1.7-1.6h0l1.16-.12.11,1.78-1.19.13q0-.89-.08-1.79m-.87-.46.1,3.18a32.83,32.83,0,0,0,4.59-.62l-.32-3.15a3.49,3.49,0,0,0-2.39-2.8,4.17,4.17,0,0,0-2,3.39"/><path id="Fill-25" class="cls-1" d="M18.36,23.22h0L18.44,22l0-.56,1.16.12h0l-.08,1.79-1.19-.13m-1.44-2,1.14.18-.12,1.78L16.77,23l.16-1.78m1.31-2.4-.11,1.56,0,.61L17,20.79h0v-.12a2.46,2.46,0,0,1,1.26-1.88M19.66,21s0,.08,0,.11L18.5,21l0-.72.09-1.48a3,3,0,0,1,1,2.21m.85.07a4.17,4.17,0,0,0-2-3.39,3.5,3.5,0,0,0-2.39,2.8l-.32,3.15a32.85,32.85,0,0,0,4.59.62q0-1.59.1-3.18"/></g></g></svg>