<?xml version="1.0" encoding="utf-8"?>
<!-- Generator: Adobe Illustrator 21.1.0, SVG Export Plug-In . SVG Version: 6.00 Build 0)  -->
<svg version="1.1"
	 id="Calque_1" xmlns:cc="http://creativecommons.org/ns#" xmlns:dc="http://purl.org/dc/elements/1.1/" xmlns:inkscape="http://www.inkscape.org/namespaces/inkscape" xmlns:rdf="http://www.w3.org/1999/02/22-rdf-syntax-ns#" xmlns:sodipodi="http://sodipodi.sourceforge.net/DTD/sodipodi-0.dtd" xmlns:svg="http://www.w3.org/2000/svg"
	 xmlns="http://www.w3.org/2000/svg" xmlns:xlink="http://www.w3.org/1999/xlink" x="0px" y="0px" viewBox="0 0 100 125"
	 style="enable-background:new 0 0 100 125;" xml:space="preserve">
<style type="text/css">
	.st0{fill:#C09B78;}
</style>
<g transform="translate(0,-952.36218)">
	<path class="st0" d="M90.4,976.4c-2.7-2.7-7.1-2.7-9.8,0l-29.3,29.3L22,976.4c-2.7-2.7-7.1-2.7-9.8,0c-2.7,2.7-2.7,7.1,0,9.8
		l29.3,29.3l-29.3,29.3c-2.7,2.7-2.7,7.1,0,9.8c2.7,2.7,7.1,2.7,9.8,0l29.3-29.3l29.3,29.3c2.7,2.7,7.1,2.7,9.8,0
		c2.7-2.7,2.7-7.1,0-9.8l-29.3-29.3l29.3-29.3C93.1,983.5,93.1,979.1,90.4,976.4L90.4,976.4z"/>
</g>
</svg>
