<?xml version="1.0" encoding="utf-8"?>
<!-- Generator: Adobe Illustrator 21.1.0, SVG Export Plug-In . SVG Version: 6.00 Build 0)  -->
<svg version="1.1" id="Calque_1" xmlns="http://www.w3.org/2000/svg" xmlns:xlink="http://www.w3.org/1999/xlink" x="0px" y="0px"
	 viewBox="0 0 233 85" style="enable-background:new 0 0 233 85;" xml:space="preserve">
<style type="text/css">
	.st0{fill:#FFFFFF;}
</style>
<title>Page2</title>
<desc>Created with Sketch.</desc>
<g id="Page2" transform="translate(10197.000000, 157.000000)">
	<path id="Fill-1" class="st0" d="M-10109.8-72.5v-0.2l0.3-0.1c0.3-0.1,0.4-0.2,0.4-0.8v-3.3c0-0.7-0.1-0.7-0.4-0.8l-0.3-0.1V-78
		c0.6,0,1.9-0.1,2.6-0.1c1,0,2.1,0.3,2.1,1.5c0,1.4-1.4,1.8-2.6,1.8v-0.3c0.7,0,1.3-0.4,1.3-1.4c0-0.9-0.5-1.3-1.2-1.3
		c-0.1,0-0.2,0-0.3,0v4c0,0.7,0.1,0.7,0.4,0.8l0.4,0.1v0.2h-2.7V-72.5z"/>
	<path id="Fill-3" class="st0" d="M-10093.9-76.2c-0.1-0.3-0.2-0.7-0.2-0.8l0,0c0,0.2-0.2,0.6-0.3,0.9l-0.5,1.5h1.6L-10093.9-76.2z
		 M-10093.5-72.5v-0.2l0.3-0.1c0.3-0.1,0.3-0.2,0.1-0.8l-0.3-0.8h-1.9l-0.2,0.6c-0.2,0.7-0.2,0.9,0.1,1l0.3,0.1v0.2h-1.7v-0.2
		l0.2-0.1c0.2-0.1,0.3-0.2,0.5-0.9l1.2-3c0.3-0.8,0.3-1,0-1.1l-0.3-0.1v-0.2h2.6v0.2l-0.3,0.1c-0.4,0.1-0.3,0.3,0,1.1l1.1,3.1
		c0.2,0.6,0.3,0.7,0.5,0.8l0.2,0.1v0.2C-10091.1-72.5-10093.5-72.5-10093.5-72.5z"/>
	<path id="Fill-5" class="st0" d="M-10077.1-72.3c-1.2,0-1.7-0.6-2.2-1.6c-0.3-0.4-0.6-1-0.9-1.3h0.2c0.7,0,1.2-0.4,1.2-1.2
		c0-0.8-0.5-1.2-1.2-1.2c-0.1,0-0.2,0-0.2,0v4c0,0.7,0.1,0.7,0.4,0.8l0.3,0.1v0.2h-2.5v-0.2l0.3-0.1c0.3-0.1,0.4-0.2,0.4-0.8v-3.3
		c0-0.7-0.1-0.7-0.4-0.8l-0.3-0.1V-78c0.8,0,1.7-0.1,2.6-0.1c1,0,2.1,0.3,2.1,1.4c0,0.8-0.6,1.2-1.3,1.4c0.2,0.3,0.5,0.8,0.8,1.2
		c0.5,0.7,1,1.3,1.5,1.3c0.1,0,0.1,0,0.2,0v0.2C-10076.4-72.3-10076.8-72.3-10077.1-72.3"/>
	<path id="Fill-7" class="st0" d="M-10067.5-72.5v-0.2l0.3-0.1c0.3-0.1,0.4-0.2,0.4-0.8v-3.3c0-0.7-0.1-0.7-0.4-0.8l-0.3-0.1V-78
		h2.5v0.2l-0.3,0.1c-0.3,0.1-0.4,0.2-0.4,0.8v3.3c0,0.7,0.1,0.7,0.4,0.8l0.3,0.1v0.2H-10067.5z"/>
	<path id="Fill-9" class="st0" d="M-10054.2-72.3c-0.4,0-0.9-0.1-1.3-0.2l-0.2-1.3l0.2-0.1l0.2,0.4c0.2,0.3,0.5,0.7,1.1,0.7
		c0.6,0,1.1-0.3,1.1-0.9c0-0.5-0.5-0.8-0.9-1l-0.5-0.2c-0.5-0.3-1.1-0.7-1.1-1.5c0-1.1,0.9-1.7,1.9-1.7c0.2,0,0.4,0,0.7,0.1
		s0.4,0.1,0.4,0v-0.1h0.2v1.5h-0.2l-0.1-0.5c-0.1-0.3-0.3-0.6-1-0.6c-0.4,0-0.9,0.2-0.9,0.7s0.5,0.7,0.9,0.9l0.5,0.2
		c0.6,0.3,1.1,0.8,1.1,1.5C-10052.2-72.9-10053.2-72.3-10054.2-72.3"/>
	<path id="Fill-11" class="st0" d="M-10103.4-137.7l0.6-0.1c0.4-0.1,0.4-0.2,0.4-0.9v-2.4c0-0.7-0.1-0.8-0.4-0.9l-0.6-0.1v-0.2h3.3
		v0.2l-0.6,0.1c-0.4,0.1-0.4,0.2-0.4,0.9v2.4c0,0.7,0.1,0.8,0.4,0.9l0.6,0.1v0.2h-3.3V-137.7z"/>
	<path id="Fill-13" class="st0" d="M-10097.2-136.2c-0.1,0-0.3,0-0.5,0v-0.3c0.1,0,0.3,0,0.4,0c0.9,0,2-0.4,2-1.4
		c0-1.1-1.2-1.5-2.2-1.6l0.4-2.8h1.4c0.9,0,1,0,1.1-0.2l0.1-0.2h0.2l-0.3,1.3h-2.1l-0.2,1c1.4,0.2,2.6,0.8,2.6,2.1
		C-10094.2-136.8-10095.9-136.2-10097.2-136.2"/>
	<path id="Fill-15" class="st0" d="M-10065.7-142.4c0-0.6-0.3-1-0.8-1s-0.7,0.4-0.7,0.8c0,0.7,0.5,1,1,1.3
		C-10066.1-141.4-10065.7-141.7-10065.7-142.4 M-10065.7-138.9c0-0.8-0.7-1.2-1.3-1.6c-0.4,0.2-0.6,0.7-0.6,1.5c0,0.7,0.4,1.3,1,1.3
		C-10066.2-137.8-10065.7-138.2-10065.7-138.9 M-10068.7-139c0-0.9,0.8-1.4,1.3-1.6c-0.7-0.4-1-0.9-1-1.5c0-1,0.9-1.6,1.8-1.6
		c0.8,0,1.6,0.4,1.6,1.3c0,0.7-0.6,1.1-1.1,1.3c0.7,0.4,1.4,0.9,1.4,1.8c0,1.2-1,1.8-2.1,1.8
		C-10067.7-137.4-10068.7-137.9-10068.7-139"/>
	<path id="Fill-17" class="st0" d="M-10062.1-137.5v-0.6c0.4-0.2,0.9-0.5,1.3-0.8c0.5-0.4,1.2-1,1.2-1.7c0-0.6-0.6-1.1-1.1-1.1
		s-0.9,0.2-1.2,0.5l-0.2-0.2c0.6-0.7,1.2-1.1,2.1-1.1s1.8,0.6,1.8,1.5c0,0.7-0.6,1.3-1.2,1.8c-0.4,0.3-1.1,0.7-1.4,0.9h1.6
		c0.9,0,1.2-0.1,1.4-0.5l0.1-0.3h0.2l-0.3,1.5h-4.3V-137.5z"/>
	<path id="Fill-19" class="st0" d="M-10079.8-130.8L-10079.8-130.8l0.1-0.9c2.1,0.5,2.9,2.5,2.9,3.7v6.1h-0.1c0,0-0.4,0.1-0.6,0.1
		v-5.8C-10077.5-129.1-10078.5-130.4-10079.8-130.8L-10079.8-130.8z M-10084.3-127.6v5.8c-0.2,0-0.6-0.1-0.6-0.1h-0.1v-6.1
		c0-1.1,0.8-3.1,2.9-3.7l0.1,0.9l0,0C-10083.3-130.4-10084.3-129.1-10084.3-127.6L-10084.3-127.6z M-10092.7-125.3L-10092.7-125.3
		c1.7,0.8,3.6,1.5,5.4,1.9l0,0l0.1-0.4l0,0c-1.8-0.4-3.6-1-5.3-1.8l0.5-0.8l0,0c0.9,0.4,1.8,0.8,2.7,1.1l0,0l0.1-0.4l0,0
		c-0.9-0.3-1.7-0.6-2.6-1l0.5-0.8l0,0c1.2,0.6,2.5,1,3.8,1.4l0,0l0.1-0.4l0,0c-1.3-0.3-2.5-0.8-3.7-1.3l0.5-0.9
		c1.6,0.7,3.3,1.3,5.1,1.6l0,0v5.1c-2.7-0.4-5.3-1.2-7.8-2.4L-10092.7-125.3z M-10090-130.8c0.8,0.3,1.6,0.5,2.4,0.8l0,0l0.1-0.4
		l0,0c-0.8-0.2-1.6-0.5-2.4-0.8l0,0c0-0.2,0.1-0.5,0.1-0.8c1.1,0.4,2.3,0.7,3.6,0.9l0,0l0.1-0.4l0,0c-1.2-0.2-2.4-0.5-3.6-0.9l0,0
		l1.9-13.1l0,0c0.7-0.3,1.4-0.5,2.2-0.7l0,0l-0.1-0.4l0,0c-0.7,0.2-1.4,0.4-2,0.6l0.1-1l0,0c1-0.3,2.1-0.6,3.1-0.8l0,0l-0.1-0.4l0,0
		c-1,0.2-2,0.4-3,0.7c0-0.2,0.1-0.8,0.1-0.8l-0.3-1c0.3-0.1,0.7-0.2,1-0.3l0.3,0.9c0.3-0.1,0.6-0.2,0.9-0.2l-0.2-0.9
		c0.3-0.1,0.7-0.1,1-0.2l0.2,0.9c0.3,0,0.6-0.1,1-0.1l-0.1-0.9c0.3,0,0.7-0.1,1.1-0.1l0.1,0.9c0.3,0,0.6,0,1,0v-0.9
		c0.2,0,0.5,0,0.5,0c0.2,0,0.4,0,0.5,0v0.9c0.3,0,0.6,0,1,0l0.1-0.9c0.4,0,0.7,0.1,1.1,0.1l-0.1,0.9c0.3,0,0.7,0.1,1,0.1l0.2-0.9
		c0.4,0.1,0.7,0.1,1,0.2l-0.2,0.9c0.3,0.1,0.7,0.1,0.9,0.2l0.3-0.9c0.3,0.1,0.7,0.2,1,0.3l-0.3,1c0,0,0.1,0.7,0.1,0.8
		c-1-0.3-2-0.6-3-0.7l0,0l-0.1,0.4l0,0l0,0c1.1,0.2,2.1,0.4,3.1,0.8l0,0l0.1,1c-0.7-0.2-1.3-0.5-2-0.6l0,0l-0.1,0.4l0,0
		c0.7,0.2,1.4,0.4,2.2,0.7l0,0l1.9,13.1l0,0c-1.2,0.4-2.3,0.7-3.6,0.9l0,0l0.1,0.4l0,0c1.2-0.2,2.4-0.5,3.6-0.9
		c0,0.3,0.1,0.6,0.1,0.8l0,0c-0.8,0.3-1.6,0.5-2.4,0.8l0,0l0.1,0.4l0,0c0.8-0.2,1.6-0.5,2.4-0.8l0.1,0.8c-1.9,0.9-3.5,1.3-4.7,1.5
		c-0.2-1.5-1.3-3.2-3.3-3.7l0.1-0.5h-2.6l0.1,0.5c-2,0.5-3.1,2.2-3.3,3.7l0,0c-1.2-0.3-2.8-0.7-4.7-1.5L-10090-130.8z
		 M-10088.4-150.3c-0.1-0.2-0.3-0.4-0.4-0.7c1.1-0.4,2.1-0.6,3.2-0.8l0,0l-0.1-0.4l0,0c-1.1,0.2-2.2,0.5-3.3,0.9l0,0
		c-0.1-0.1-0.3-0.5-0.4-0.7c0.3-0.1,0.6-0.2,0.9-0.3l0,0l-0.1-0.4l0,0c-0.3,0.1-0.6,0.2-1,0.3l0,0c-0.1-0.2-0.6-1.2-1-2.1
		c0.8-0.3,1.6-0.5,2.4-0.7l0.5,2.2c0,0,1.4-0.4,2.6-0.6c-0.1-0.4-0.4-2.2-0.4-2.2c1-0.2,2.1-0.3,3.1-0.3l0.1,2.3c0,0,0.8,0,1.3,0
		s1.3,0,1.3,0l0.1-2.3c1,0.1,2.1,0.2,3.1,0.3c0,0-0.3,1.8-0.4,2.2c1.3,0.2,2.6,0.6,2.6,0.6l0.5-2.2c0.8,0.2,1.6,0.5,2.4,0.7
		c-0.5,1-1,2-1,2.1l0,0c-0.3-0.1-0.7-0.2-1-0.3l0,0l-0.1,0.4l0,0c0.3,0.1,0.6,0.2,0.9,0.3c-0.1,0.2-0.3,0.6-0.4,0.7l0,0
		c-1.1-0.4-2.2-0.7-3.3-0.9l0,0l-0.1,0.4l0,0c1.1,0.2,2.2,0.5,3.2,0.8c-0.1,0.2-0.3,0.4-0.4,0.7c-2.2-0.7-4.7-1.1-7.3-1.1h-0.4
		C-10083.7-151.4-10086.2-151-10088.4-150.3L-10088.4-150.3z M-10070.8-127.9c-1.2,0.5-2.5,1-3.7,1.3l0,0l0.1,0.4l0,0
		c1.3-0.3,2.6-0.8,3.8-1.4l0,0l0.5,0.8c-0.8,0.4-1.7,0.7-2.6,1l0,0l0.1,0.4l0,0c0.9-0.3,1.8-0.7,2.7-1.1l0,0l0.5,0.8
		c-1.7,0.8-3.5,1.4-5.3,1.8l0,0l0.1,0.4l0,0c1.9-0.4,3.7-1.1,5.4-1.9l0,0l0.5,0.8c-2.5,1.2-5.1,2-7.8,2.4v-5.2l0,0
		c1.8-0.3,3.5-0.9,5.1-1.6L-10070.8-127.9z M-10081.5-129.9l-0.3-2.3h1.7l-0.3,2.3H-10081.5z M-10067.4-124.1l-3.4-5.5l-2.8-18.8
		c0.1-0.2,0.2-0.4,0.4-0.6c0.2-0.3,0.4-0.7,0.6-1c1.5-2.6,2.5-5,2.5-5s-1.9-0.8-4.1-1.3c-0.1,0.2-0.6,2.3-0.6,2.3
		c-0.4-0.1-0.7-0.2-1.1-0.2l0.4-2.4c0,0-2.2-0.4-4.9-0.5c0,0.5-0.1,2.4-0.1,2.4c-0.1,0-0.5,0-0.5,0s-0.4,0-0.5,0c0,0,0-1.9-0.1-2.4
		c-2.6,0.1-4.9,0.5-4.9,0.5l0.4,2.4c-0.4,0.1-0.7,0.1-1.1,0.2c0,0-0.5-2.1-0.6-2.3c-2.2,0.5-4.1,1.3-4.1,1.3s1,2.3,2.5,5
		c0.2,0.3,0.4,0.7,0.6,1c0.1,0.2,0.2,0.4,0.4,0.6l-2.6,18.8l-3.4,5.5c0,0,4.8,2.7,11,3.2v-6.7c0-1.1,0.6-2,1.6-2.3l0,0
		c0,0.1,0.1,0.4,0.1,0.4l0,0h1.8l0,0c0-0.1,0-0.3,0-0.4l0,0c0.9,0.4,1.6,1.3,1.6,2.3v6.7
		C-10072.1-121.4-10067.4-124.1-10067.4-124.1L-10067.4-124.1z"/>
	<path id="Fill-21" class="st0" d="M-10083-141c0-0.3,0.1-1.5,0.1-1.7l0,0c0.2,0,0.5,0,0.7,0c0.4,0,0.9,0,1.1,0c0,0.3,0,1.5,0,1.7
		l0,0H-10083z M-10081.1-147.6c0,0.9,0,1.6,0,2.3c-0.5,0-1.3,0-1.7,0.1C-10082.8-145.4-10082.6-146.2-10081.1-147.6L-10081.1-147.6z
		 M-10079-145.2c-0.4,0-1.2-0.1-1.7-0.1c0,0,0-1.7,0-2.3C-10079.3-146.2-10079-145.4-10079-145.2L-10079-145.2z M-10080.7-141
		L-10080.7-141c0-0.1,0-0.5,0-0.8c0-0.4,0-0.7,0-0.9c0.3,0,0.7,0,1.1,0c0.2,0,0.5,0,0.7,0l0,0c0,0.2,0.1,1.4,0.1,1.7H-10080.7z
		 M-10082.9-144.8c0.6,0,1.2-0.1,1.7-0.1c0,0.2,0,1.3,0,1.7c-0.3,0-0.7,0-1.1,0c-0.2,0-0.5,0-0.7,0
		C-10082.9-143.3-10082.9-144.6-10082.9-144.8L-10082.9-144.8z M-10079.6-143.1c-0.4,0-0.8,0-1.1,0c0-0.3,0-0.8,0-1.3
		c0-0.2,0-0.4,0-0.5c0.6,0,1.1,0,1.7,0.1l0,0c0,0.2,0.1,1.5,0.1,1.7C-10079.1-143.1-10079.4-143.1-10079.6-143.1L-10079.6-143.1z
		 M-10081.4-139.6c0,0,0.9,0,1,0c0-0.3,0-0.5,0-0.5s3.2,0,3.4,0c0-0.3-0.1-0.8-0.1-0.8h-0.8c0,0-0.1-2.4-0.2-3.5
		c0.3,0,0.5,0.1,0.8,0.1c0-0.1-0.1-0.7-0.1-0.8c-0.3,0-0.5-0.1-0.8-0.1c-0.4-1.7-2.7-3.5-2.7-3.5s-2.3,1.8-2.7,3.5
		c-0.3,0-0.5,0.1-0.8,0.1c0,0.2-0.1,0.8-0.1,0.8c0.3,0,0.5-0.1,0.8-0.1c-0.1,1.1-0.2,3.5-0.2,3.5h-0.8c0,0,0,0.6-0.1,0.8
		c0.3,0,3.4,0,3.4,0S-10081.4-139.9-10081.4-139.6L-10081.4-139.6z"/>
	<path id="Fill-23" class="st0" d="M-10077.1-138.2c0,0.8,0.1,1.5,0.1,2.2c-0.4,0.1-0.8,0.1-1.2,0.1v-0.1
		C-10078.1-137.2-10077.2-138-10077.1-138.2 M-10075.4-136.3v0.1l0,0c-0.4,0.1-0.7,0.1-1.1,0.2c0-0.7-0.1-1.4-0.1-2.2
		C-10076.2-137.9-10075.5-137.4-10075.4-136.3 M-10076.4-133.8l-0.1-1.8c0.4-0.1,0.7-0.1,1.1-0.2c0.1,0.6,0.1,1.2,0.2,1.8
		C-10075.6-134-10076-133.9-10076.4-133.8 M-10078.1-135.4L-10078.1-135.4c0.4,0,0.8-0.1,1.2-0.1l0.1,1.8c-0.4,0.1-0.8,0.1-1.2,0.1
		C-10078-134.2-10078-134.8-10078.1-135.4 M-10078.9-135.9c0,1.1,0.1,2.1,0.1,3.2c1.5-0.1,3.1-0.3,4.6-0.6c-0.1-1-0.2-2.1-0.3-3.1
		c-0.2-2-2.1-2.7-2.4-2.8C-10077.1-139.2-10079-138-10078.9-135.9"/>
	<path id="Fill-25" class="st0" d="M-10085.1-133.8L-10085.1-133.8c0-0.4,0.1-0.8,0.1-1.2v-0.6c0.4,0,0.7,0.1,1.2,0.1l0,0
		c0,0.6-0.1,1.2-0.1,1.8C-10084.3-133.7-10084.7-133.7-10085.1-133.8 M-10086.5-135.8c0.4,0.1,0.8,0.1,1.1,0.2l-0.1,1.8
		c-0.4-0.1-0.8-0.1-1.2-0.2C-10086.6-134.6-10086.5-135.2-10086.5-135.8 M-10085.2-138.2c0,0.6-0.1,1.1-0.1,1.6v0.6
		c-0.4-0.1-0.7-0.1-1.1-0.2l0,0v-0.1C-10086.4-137.4-10085.6-137.9-10085.2-138.2 M-10083.8-136v0.1c-0.4,0-0.8-0.1-1.2-0.1v-0.7
		c0-0.5,0.1-0.9,0.1-1.5C-10084.6-138-10083.7-137.2-10083.8-136 M-10082.9-135.9c0-2.1-1.8-3.3-2-3.4c-0.2,0.1-2.2,0.8-2.4,2.8
		c-0.1,1-0.2,2.1-0.3,3.1c1.5,0.3,3.1,0.5,4.6,0.6C-10083-133.8-10082.9-134.8-10082.9-135.9"/>
	<g id="Group-29" transform="translate(0.000000, 46.772618)">
		<g id="Clip-28">
		</g>
		<polygon id="Fill-27" class="st0" points="-10196.6,-156.9 -10182,-156.9 -10181.6,-150.3 -10181.9,-150.3 -10184.1,-155.9 
			-10187.6,-156.2 -10187.6,-137.6 -10185.3,-137 -10185.3,-136.7 -10193.3,-136.7 -10193.3,-137 -10191,-137.6 -10191,-156.2 
			-10194.5,-155.9 -10196.7,-150.3 -10197,-150.3 		"/>
	</g>
	<path id="Fill-30" class="st0" d="M-10164.2-100c0-5.7-1.1-9.9-4.8-9.9c-3.3,0-4.8,4-4.8,9.8c0,5.7,1.1,9.9,4.8,9.9
		C-10165.6-90.1-10164.2-94.2-10164.2-100 M-10160.5-100c0,6-3.4,10.6-8.5,10.6c-5.2,0-8.7-4.5-8.7-10.7c0-6,3.6-10.6,8.6-10.6
		C-10163.9-110.6-10160.5-106.2-10160.5-100"/>
	<path id="Fill-32" class="st0" d="M-10153.9-98.4l0.2-10.7l-2.3-0.7v-0.3h8v0.3l-2.3,0.6l-0.2,11c-0.1,4.7,1.5,7.4,4.6,7.4
		c3,0,4.9-2.6,4.7-7.4l-0.4-10.9l-3.4-0.7v-0.3h7v0.3l-2.3,0.6l0.1,10.9c0,5.6-2.1,8.9-6.5,8.9
		C-10151.3-89.4-10154-92.6-10153.9-98.4"/>
	<path id="Fill-34" class="st0" d="M-10122.9-104.6c0-2.4-1-4.4-3.9-4.6l-1.8-0.1v9.3l1.8-0.1
		C-10123.8-100.4-10122.9-102.2-10122.9-104.6L-10122.9-104.6z M-10134.4-89.9v-0.3l2.3-0.6v-18.4l-2.3-0.6v-0.3h7.2
		c5.4,0,8,2.3,8,5.4c0,2.7-1.7,4.5-5.6,5.1v0.1l3,1.8l2.7,4.5c1,1.7,1.6,2.6,3.3,3v0.3c-4.2,0.6-5.6-0.5-7-3.1l-3.1-6.2l-2.7-0.2
		v8.6l2.3,0.6v0.3C-10126.3-89.9-10134.4-89.9-10134.4-89.9z"/>
	<path id="Fill-36" class="st0" d="M-10104.7-106.3l-1.1-0.1v12.2l1.2-0.1c2.4-0.2,3.7-2.6,3.7-6
		C-10101-103.7-10102.3-106.1-10104.7-106.3 M-10104.8-93.6h-5.6v-0.3l1.8-0.4v-12l-1.8-0.4v-0.3h5.5c4,0,7,2.4,7,6.7
		C-10097.9-96-10100.9-93.6-10104.8-93.6"/>
	<path id="Fill-38" class="st0" d="M-10096.1-100.7c1.3-1.8,2.1-3.9,2.1-5.6l-1.6-0.4v-0.3h4.2c-0.5,2.6-2.1,4.5-4.4,6.5
		L-10096.1-100.7z"/>
	<path id="Fill-40" class="st0" d="M-10078.9-98.3l-2.7-8l-2.7,7.9l2.8,2.1L-10078.9-98.3z M-10089.7-89.9v-0.3l1.6-0.6l7.5-20.3
		h0.8l7.2,20.3l1.5,0.6v0.3h-7.5v-0.3l2.2-0.6l-2.3-6.7l-2.9,2.7l-3-2.7l-2.4,6.8l3.1,0.6v0.3L-10089.7-89.9L-10089.7-89.9z"/>
	<path id="Fill-42" class="st0" d="M-10056.2-104.6c0-2.4-1-4.4-3.9-4.6l-1.8-0.1v9.3l1.8-0.1
		C-10057.1-100.4-10056.2-102.2-10056.2-104.6L-10056.2-104.6z M-10067.6-89.9v-0.3l2.3-0.6v-18.4l-2.3-0.6v-0.3h7.2
		c5.4,0,8,2.3,8,5.4c0,2.7-1.7,4.5-5.6,5.1v0.1l3,1.8l2.7,4.5c1,1.7,1.6,2.6,3.3,3v0.3c-4.2,0.6-5.6-0.5-7-3.1l-3.1-6.2l-2.7-0.2
		v8.6l2.3,0.6v0.3C-10059.5-89.9-10067.6-89.9-10067.6-89.9z"/>
	<path id="Fill-44" class="st0" d="M-10029.9-89.4h-0.4l-1.9-1c-1.2,0.6-2.9,1-4.5,1c-6.2,0-9.2-4.9-9.2-10.7c0-6,3.4-10.6,9.6-10.6
		c1.6,0,3.1,0.3,4.4,0.9l1.4-1.2l0.5,6.7h-0.3l-2.3-4.3c-0.9-0.7-2.2-1.1-3.8-1.1c-4.1,0-5.7,4.1-5.7,9.7c0,5.4,1.8,9.8,5.7,9.8
		c1,0,2-0.2,2.9-0.5V-98l-3-0.6v-0.3h8.4v0.3l-1.9,0.6L-10029.9-89.4L-10029.9-89.4z"/>
	<polygon id="Fill-46" class="st0" points="-10008.9,-89.9 -10023.3,-89.9 -10023.3,-90.3 -10021.1,-90.8 -10021.1,-109.2 
		-10023.3,-109.8 -10023.3,-110.1 -10009.4,-110.1 -10008.9,-104.3 -10009.2,-104.3 -10011.5,-109 -10017.6,-109.4 -10017.6,-100.6 
		-10012.6,-100.7 -10011.3,-103.4 -10011.1,-103.4 -10011.1,-97 -10011.3,-97 -10012.6,-99.8 -10017.6,-99.9 -10017.6,-90.6 
		-10011,-91 -10008.5,-96.6 -10008.2,-96.6 	"/>
	<polygon id="Fill-48" class="st0" points="-9995.8,-89.9 -10002.9,-89.9 -10002.9,-90.3 -10000.6,-90.8 -10000.6,-108.7 
		-10002.9,-109.8 -10002.9,-110.1 -9997.1,-110.1 -9987.2,-93.8 -9987.5,-109.2 -9991.1,-109.8 -9991.1,-110.1 -9984,-110.1 
		-9984,-109.8 -9986.3,-109.2 -9986.3,-92.4 -9985,-90.3 -9985,-89.9 -9988.7,-89.9 -9999.8,-108 -9999.5,-90.8 -9995.8,-90.3 	"/>
	<g id="Group-52" transform="translate(216.673203, 46.772618)">
		<g id="Clip-51">
		</g>
		<polygon id="Fill-50" class="st0" points="-10196.5,-156.9 -10181.9,-156.9 -10181.5,-150.3 -10181.8,-150.3 -10184.1,-155.9 
			-10187.5,-156.2 -10187.5,-137.6 -10185.2,-137 -10185.2,-136.7 -10193.3,-136.7 -10193.3,-137 -10191,-137.6 -10191,-156.2 
			-10194.4,-155.9 -10196.6,-150.3 -10196.9,-150.3 		"/>
	</g>
</g>
</svg>
