<?xml version="1.0" encoding="utf-8"?>
<!-- Generator: Adobe Illustrator 21.1.0, SVG Export Plug-In . SVG Version: 6.00 Build 0)  -->
<svg version="1.1" id="Calque_1" xmlns="http://www.w3.org/2000/svg" xmlns:xlink="http://www.w3.org/1999/xlink" x="0px" y="0px"
	 viewBox="0 0 100 125" style="enable-background:new 0 0 100 125;" xml:space="preserve">
<style type="text/css">
	.st0{fill:#C09B78;}
</style>
<path class="st0" d="M42.1,28c0-4.4,3.6-8,7.9-8s7.9,3.6,7.9,8s-3.6,8-7.9,8S42.1,32.4,42.1,28z M38,42.9v15.4
	c0,1.1,0.9,1.9,1.9,1.9l0,0c1.1,0,1.9-0.9,1.9-1.9v-9.6c0-0.5,0.4-1,0.9-1s0.9,0.4,0.9,0.9v28.6c0,1.5,1.2,2.7,2.6,2.7
	c1.5,0,2.6-1.2,2.6-2.7v-14h2v14c0,1.5,1.2,2.7,2.6,2.7c1.5,0,2.6-1.2,2.6-2.7V48.6c0-0.5,0.4-0.9,0.9-0.9s0.9,0.4,0.9,1v9.6
	c0,1.1,0.9,1.9,1.9,1.9l0,0c1.1,0,1.9-0.9,1.9-1.9V42.9C62,36,38,36,38,42.9z"/>
</svg>
