<?xml version="1.0" encoding="utf-8"?>
<!-- Generator: Adobe Illustrator 21.1.0, SVG Export Plug-In . SVG Version: 6.00 Build 0)  -->
<svg version="1.1" id="Calque_1" xmlns="http://www.w3.org/2000/svg" xmlns:xlink="http://www.w3.org/1999/xlink" x="0px" y="0px"
	 viewBox="0 0 233 85" style="enable-background:new 0 0 233 85;" xml:space="preserve">
<style type="text/css">
	.st0{filter:url(#Adobe_OpacityMaskFilter);}
	.st1{fill:#FFFFFF;}
	.st2{mask:url(#mask-2);}
	.st3{filter:url(#Adobe_OpacityMaskFilter_1_);}
	.st4{mask:url(#mask-4);}
</style>
<title>Page2</title>
<desc>Created with Sketch.</desc>
<g id="Page-1">
	<g id="VF-TdA" transform="translate(-10197.000000, -157.000000)">
		<g id="Page2" transform="translate(10197.000000, 157.000000)">
			<path id="Fill-1" d="M87.2,84.5v-0.2l0.3-0.1c0.3-0.1,0.4-0.2,0.4-0.8v-3.3c0-0.7-0.1-0.7-0.4-0.8l-0.3-0.1v-0.2
				c0.6,0,1.9-0.1,2.6-0.1c1,0,2.1,0.3,2.1,1.5c0,1.4-1.4,1.8-2.6,1.8l0-0.3c0.7,0,1.3-0.4,1.3-1.4c0-0.9-0.5-1.3-1.2-1.3
				c-0.1,0-0.2,0-0.3,0v4c0,0.7,0.1,0.7,0.4,0.8l0.4,0.1v0.2H87.2z"/>
			<path id="Fill-3" d="M103.1,80.8c-0.1-0.3-0.2-0.7-0.2-0.8h0c0,0.2-0.2,0.6-0.3,0.9l-0.5,1.5h1.6L103.1,80.8z M103.5,84.5v-0.2
				l0.3-0.1c0.3-0.1,0.3-0.2,0.1-0.8l-0.3-0.8h-1.9l-0.2,0.6c-0.2,0.7-0.2,0.9,0.1,1l0.3,0.1v0.2h-1.7v-0.2l0.2-0.1
				c0.2-0.1,0.3-0.2,0.5-0.9l1.2-3c0.3-0.8,0.3-1,0-1.1l-0.3-0.1v-0.2h2.6v0.2l-0.3,0.1c-0.4,0.1-0.3,0.3,0,1.1l1.1,3.1
				c0.2,0.6,0.3,0.7,0.5,0.8l0.2,0.1v0.2H103.5z"/>
			<path id="Fill-5" d="M119.9,84.7c-1.2,0-1.7-0.6-2.2-1.6c-0.3-0.4-0.6-1-0.9-1.3h0.2c0.7,0,1.2-0.4,1.2-1.2
				c0-0.8-0.5-1.2-1.2-1.2c-0.1,0-0.2,0-0.2,0v4c0,0.7,0.1,0.7,0.4,0.8l0.3,0.1v0.2h-2.5v-0.2l0.3-0.1c0.3-0.1,0.4-0.2,0.4-0.8v-3.3
				c0-0.7-0.1-0.7-0.4-0.8l-0.3-0.1v-0.2c0.8,0,1.7-0.1,2.6-0.1c1,0,2.1,0.3,2.1,1.4c0,0.8-0.6,1.2-1.3,1.4c0.2,0.3,0.5,0.8,0.8,1.2
				c0.5,0.7,1,1.3,1.5,1.3c0.1,0,0.1,0,0.2,0l0,0.2C120.6,84.7,120.2,84.7,119.9,84.7"/>
			<path id="Fill-7" d="M129.5,84.5v-0.2l0.3-0.1c0.3-0.1,0.4-0.2,0.4-0.8v-3.3c0-0.7-0.1-0.7-0.4-0.8l-0.3-0.1v-0.2h2.5v0.2
				l-0.3,0.1c-0.3,0.1-0.4,0.2-0.4,0.8v3.3c0,0.7,0.1,0.7,0.4,0.8l0.3,0.1v0.2H129.5z"/>
			<path id="Fill-9" d="M142.8,84.7c-0.4,0-0.9-0.1-1.3-0.2l-0.2-1.3l0.2-0.1l0.2,0.4c0.2,0.3,0.5,0.7,1.1,0.7
				c0.6,0,1.1-0.3,1.1-0.9c0-0.5-0.5-0.8-0.9-1l-0.5-0.2c-0.5-0.3-1.1-0.7-1.1-1.5c0-1.1,0.9-1.7,1.9-1.7c0.2,0,0.4,0,0.7,0.1
				c0.3,0.1,0.4,0.1,0.4,0l0-0.1h0.2v1.5h-0.2l-0.1-0.5c-0.1-0.3-0.3-0.6-1-0.6c-0.4,0-0.9,0.2-0.9,0.7c0,0.5,0.5,0.7,0.9,0.9
				l0.5,0.2c0.6,0.3,1.1,0.8,1.1,1.5C144.8,84.1,143.8,84.7,142.8,84.7"/>
			<path id="Fill-11" d="M93.6,19.3l0.6-0.1c0.4-0.1,0.4-0.2,0.4-0.9v-2.4c0-0.7-0.1-0.8-0.4-0.9l-0.6-0.1v-0.2h3.3v0.2L96.3,15
				c-0.4,0.1-0.4,0.2-0.4,0.9v2.4c0,0.7,0.1,0.8,0.4,0.9l0.6,0.1v0.2h-3.3V19.3z"/>
			<path id="Fill-13" d="M99.8,20.8c-0.1,0-0.3,0-0.5,0l0-0.3c0.1,0,0.3,0,0.4,0c0.9,0,2-0.4,2-1.4c0-1.1-1.2-1.5-2.2-1.6l0.4-2.8
				h1.4c0.9,0,1,0,1.1-0.2l0.1-0.2l0.2,0l-0.3,1.3h-2.1l-0.2,1c1.4,0.2,2.6,0.8,2.6,2.1C102.8,20.2,101.1,20.8,99.8,20.8"/>
			<path id="Fill-15" d="M131.3,14.6c0-0.6-0.3-1-0.8-1c-0.5,0-0.7,0.4-0.7,0.8c0,0.7,0.5,1,1,1.3C130.9,15.6,131.3,15.3,131.3,14.6
				 M131.3,18.1c0-0.8-0.7-1.2-1.3-1.6c-0.4,0.2-0.6,0.7-0.6,1.5c0,0.7,0.4,1.3,1,1.3C130.8,19.2,131.3,18.8,131.3,18.1 M128.3,18
				c0-0.9,0.8-1.4,1.3-1.6c-0.7-0.4-1-0.9-1-1.5c0-1,0.9-1.6,1.8-1.6c0.8,0,1.6,0.4,1.6,1.3c0,0.7-0.6,1.1-1.1,1.3
				c0.7,0.4,1.4,0.9,1.4,1.8c0,1.2-1,1.8-2.1,1.8C129.3,19.6,128.3,19.1,128.3,18"/>
			<path id="Fill-17" d="M134.9,19.5v-0.6c0.4-0.2,0.9-0.5,1.3-0.8c0.5-0.4,1.2-1,1.2-1.7c0-0.6-0.6-1.1-1.1-1.1
				c-0.5,0-0.9,0.2-1.2,0.5l-0.2-0.2c0.6-0.7,1.2-1.1,2.1-1.1c0.9,0,1.8,0.6,1.8,1.5c0,0.7-0.6,1.3-1.2,1.8
				c-0.4,0.3-1.1,0.7-1.4,0.9h1.6c0.9,0,1.2-0.1,1.4-0.5l0.1-0.3l0.2,0l-0.3,1.5H134.9z"/>
			<path id="Fill-19" d="M117.2,26.2L117.2,26.2l0.1-0.9c2.1,0.5,2.9,2.5,2.9,3.7v6.1l-0.1,0c0,0-0.4,0.1-0.6,0.1v-5.8
				C119.5,27.9,118.5,26.6,117.2,26.2L117.2,26.2z M112.7,29.4v5.8c-0.2,0-0.6-0.1-0.6-0.1l-0.1,0V29c0-1.1,0.8-3.1,2.9-3.7l0.1,0.9
				l0,0C113.7,26.6,112.7,27.9,112.7,29.4L112.7,29.4z M104.3,31.7L104.3,31.7c1.7,0.8,3.6,1.5,5.4,1.9l0,0l0.1-0.4l0,0
				c-1.8-0.4-3.6-1-5.3-1.8l0.5-0.8l0,0c0.9,0.4,1.8,0.8,2.7,1.1l0,0l0.1-0.4l0,0c-0.9-0.3-1.7-0.6-2.6-1l0.5-0.8l0,0
				c1.2,0.6,2.5,1,3.8,1.4l0,0l0.1-0.4l0,0c-1.3-0.3-2.5-0.8-3.7-1.3l0.5-0.9c1.6,0.7,3.3,1.3,5.1,1.6l0,0V35
				c-2.7-0.4-5.3-1.2-7.8-2.4L104.3,31.7z M107,26.2c0.8,0.3,1.6,0.5,2.4,0.8l0,0l0.1-0.4l0,0c-0.8-0.2-1.6-0.5-2.4-0.8l0,0
				c0-0.2,0.1-0.5,0.1-0.8c1.1,0.4,2.3,0.7,3.6,0.9l0,0l0.1-0.4l0,0c-1.2-0.2-2.4-0.5-3.6-0.9l0,0l1.9-13.1l0,0
				c0.7-0.3,1.4-0.5,2.2-0.7l0,0l-0.1-0.4l0,0c-0.7,0.2-1.4,0.4-2,0.6l0.1-1l0,0c1-0.3,2.1-0.6,3.1-0.8l0,0l-0.1-0.4l0,0
				c-1,0.2-2,0.4-3,0.7c0-0.2,0.1-0.8,0.1-0.8l-0.3-1c0.3-0.1,0.7-0.2,1-0.3l0.3,0.9c0.3-0.1,0.6-0.2,0.9-0.2l-0.2-0.9
				c0.3-0.1,0.7-0.1,1-0.2l0.2,0.9c0.3,0,0.6-0.1,1-0.1l-0.1-0.9c0.3,0,0.7-0.1,1.1-0.1l0.1,0.9c0.3,0,0.6,0,1,0V6.8
				c0.2,0,0.5,0,0.5,0c0.2,0,0.4,0,0.5,0v0.9c0.3,0,0.6,0,1,0l0.1-0.9c0.4,0,0.7,0.1,1.1,0.1l-0.1,0.9c0.3,0,0.7,0.1,1,0.1l0.2-0.9
				c0.4,0.1,0.7,0.1,1,0.2l-0.2,0.9c0.3,0.1,0.7,0.1,0.9,0.2l0.3-0.9c0.3,0.1,0.7,0.2,1,0.3l-0.3,1c0,0,0.1,0.7,0.1,0.8
				c-1-0.3-2-0.6-3-0.7l0,0l-0.1,0.4l0,0h0c1.1,0.2,2.1,0.4,3.1,0.8l0,0l0.1,1c-0.7-0.2-1.3-0.5-2-0.6l0,0l-0.1,0.4l0,0
				c0.7,0.2,1.4,0.4,2.2,0.7l0,0l1.9,13.1l0,0c-1.2,0.4-2.3,0.7-3.6,0.9l0,0l0.1,0.4l0,0c1.2-0.2,2.4-0.5,3.6-0.9
				c0,0.3,0.1,0.6,0.1,0.8l0,0c-0.8,0.3-1.6,0.5-2.4,0.8l0,0l0.1,0.4l0,0c0.8-0.2,1.6-0.5,2.4-0.8l0.1,0.8c-1.9,0.9-3.5,1.3-4.7,1.5
				c-0.2-1.5-1.3-3.2-3.3-3.7l0.1-0.5h-2.6l0.1,0.5c-2,0.5-3.1,2.2-3.3,3.7l0,0c-1.2-0.3-2.8-0.7-4.7-1.5L107,26.2z M108.6,6.7
				c-0.1-0.2-0.3-0.4-0.4-0.7c1.1-0.4,2.1-0.6,3.2-0.8l0,0l-0.1-0.4l0,0c-1.1,0.2-2.2,0.5-3.3,0.9l0,0c-0.1-0.1-0.3-0.5-0.4-0.7
				c0.3-0.1,0.6-0.2,0.9-0.3l0,0l-0.1-0.4l0,0c-0.3,0.1-0.6,0.2-1,0.3l0,0c-0.1-0.2-0.6-1.2-1-2.1c0.8-0.3,1.6-0.5,2.4-0.7l0.5,2.2
				c0,0,1.4-0.4,2.6-0.6c-0.1-0.4-0.4-2.2-0.4-2.2c1-0.2,2.1-0.3,3.1-0.3l0.1,2.3c0,0,0.8,0,1.3,0s1.3,0,1.3,0l0.1-2.3
				c1,0.1,2.1,0.2,3.1,0.3c0,0-0.3,1.8-0.4,2.2c1.3,0.2,2.6,0.6,2.6,0.6l0.5-2.2c0.8,0.2,1.6,0.5,2.4,0.7c-0.5,1-1,2-1,2.1l0,0
				c-0.3-0.1-0.7-0.2-1-0.3l0,0l-0.1,0.4l0,0c0.3,0.1,0.6,0.2,0.9,0.3c-0.1,0.2-0.3,0.6-0.4,0.7l0,0c-1.1-0.4-2.2-0.7-3.3-0.9l0,0
				l-0.1,0.4l0,0c1.1,0.2,2.2,0.5,3.2,0.8c-0.1,0.2-0.3,0.4-0.4,0.7c-2.2-0.7-4.7-1.1-7.3-1.1h-0.4C113.3,5.6,110.8,6,108.6,6.7
				L108.6,6.7z M126.2,29.1c-1.2,0.5-2.5,1-3.7,1.3l0,0l0.1,0.4l0,0c1.3-0.3,2.6-0.8,3.8-1.4l0,0l0.5,0.8c-0.8,0.4-1.7,0.7-2.6,1
				l0,0l0.1,0.4l0,0c0.9-0.3,1.8-0.7,2.7-1.1l0,0l0.5,0.8c-1.7,0.8-3.5,1.4-5.3,1.8l0,0l0.1,0.4l0,0c1.9-0.4,3.7-1.1,5.4-1.9l0,0
				l0.5,0.8c-2.5,1.2-5.1,2-7.8,2.4v-5.2v0c1.8-0.3,3.5-0.9,5.1-1.6L126.2,29.1z M115.5,27.1l-0.3-2.3h1.7l-0.3,2.3H115.5z
				 M129.6,32.9l-3.4-5.5l-2.8-18.8c0.1-0.2,0.2-0.4,0.4-0.6c0.2-0.3,0.4-0.7,0.6-1c1.5-2.6,2.5-5,2.5-5s-1.9-0.8-4.1-1.3
				c-0.1,0.2-0.6,2.3-0.6,2.3c-0.4-0.1-0.7-0.2-1.1-0.2l0.4-2.4c0,0-2.2-0.4-4.9-0.5c0,0.5-0.1,2.4-0.1,2.4c-0.1,0-0.5,0-0.5,0
				s-0.4,0-0.5,0c0,0,0-1.9-0.1-2.4c-2.6,0.1-4.9,0.5-4.9,0.5l0.4,2.4c-0.4,0.1-0.7,0.1-1.1,0.2c0,0-0.5-2.1-0.6-2.3
				c-2.2,0.5-4.1,1.3-4.1,1.3s1,2.3,2.5,5c0.2,0.3,0.4,0.7,0.6,1c0.1,0.2,0.2,0.4,0.4,0.6L106,27.4l-3.4,5.5c0,0,4.8,2.7,11,3.2
				v-6.7c0-1.1,0.6-2,1.6-2.3l0,0c0,0.1,0.1,0.4,0.1,0.4l0,0h1.8l0,0c0-0.1,0-0.3,0-0.4l0,0c0.9,0.4,1.6,1.3,1.6,2.3v6.7
				C124.9,35.6,129.6,32.9,129.6,32.9L129.6,32.9z"/>
			<path id="Fill-21" d="M114,16c0-0.3,0.1-1.5,0.1-1.7h0c0.2,0,0.5,0,0.7,0c0.4,0,0.9,0,1.1,0c0,0.3,0,1.5,0,1.7l0,0H114z
				 M115.9,9.4c0,0.9,0,1.6,0,2.3c-0.5,0-1.3,0-1.7,0.1C114.2,11.6,114.4,10.8,115.9,9.4L115.9,9.4z M118,11.8
				c-0.4,0-1.2-0.1-1.7-0.1c0,0,0-1.7,0-2.3C117.7,10.8,118,11.6,118,11.8L118,11.8z M116.3,16L116.3,16c0-0.1,0-0.5,0-0.8
				c0-0.4,0-0.7,0-0.9c0.3,0,0.7,0,1.1,0c0.2,0,0.5,0,0.7,0h0c0,0.2,0.1,1.4,0.1,1.7H116.3z M114.1,12.2c0.6,0,1.2-0.1,1.7-0.1
				c0,0.2,0,1.3,0,1.7c-0.3,0-0.7,0-1.1,0c-0.2,0-0.5,0-0.7,0C114.1,13.7,114.1,12.4,114.1,12.2L114.1,12.2z M117.4,13.9
				c-0.4,0-0.8,0-1.1,0c0-0.3,0-0.8,0-1.3c0-0.2,0-0.4,0-0.5c0.6,0,1.1,0,1.7,0.1l0,0c0,0.2,0.1,1.5,0.1,1.7
				C117.9,13.9,117.6,13.9,117.4,13.9L117.4,13.9z M115.6,17.4c0,0,0.9,0,1,0c0-0.3,0-0.5,0-0.5s3.2,0,3.4,0c0-0.3-0.1-0.8-0.1-0.8
				h-0.8c0,0-0.1-2.4-0.2-3.5c0.3,0,0.5,0.1,0.8,0.1c0-0.1-0.1-0.7-0.1-0.8c-0.3,0-0.5-0.1-0.8-0.1c-0.4-1.7-2.7-3.5-2.7-3.5
				c0,0-2.3,1.8-2.7,3.5c-0.3,0-0.5,0.1-0.8,0.1c0,0.2-0.1,0.8-0.1,0.8c0.3,0,0.5-0.1,0.8-0.1c-0.1,1.1-0.2,3.5-0.2,3.5h-0.8
				c0,0,0,0.6-0.1,0.8c0.3,0,3.4,0,3.4,0S115.6,17.1,115.6,17.4L115.6,17.4z"/>
			<path id="Fill-23" d="M119.9,18.8c0,0.8,0.1,1.5,0.1,2.2c-0.4,0.1-0.8,0.1-1.2,0.1c0,0,0-0.1,0-0.1
				C118.9,19.8,119.8,19,119.9,18.8 M121.6,20.7c0,0,0,0.1,0,0.1l0,0c-0.4,0.1-0.7,0.1-1.1,0.2c0-0.7-0.1-1.4-0.1-2.2
				C120.8,19.1,121.5,19.6,121.6,20.7 M120.6,23.2l-0.1-1.8c0.4-0.1,0.7-0.1,1.1-0.2c0.1,0.6,0.1,1.2,0.2,1.8
				C121.4,23,121,23.1,120.6,23.2 M118.9,21.6L118.9,21.6c0.4,0,0.8-0.1,1.2-0.1l0.1,1.8c-0.4,0.1-0.8,0.1-1.2,0.1
				C119,22.8,119,22.2,118.9,21.6 M118.1,21.1c0,1.1,0.1,2.1,0.1,3.2c1.5-0.1,3.1-0.3,4.6-0.6c-0.1-1-0.2-2.1-0.3-3.1
				c-0.2-2-2.1-2.7-2.4-2.8C119.9,17.8,118,19,118.1,21.1"/>
			<path id="Fill-25" d="M111.9,23.2L111.9,23.2c0-0.4,0.1-0.8,0.1-1.2l0-0.6c0.4,0,0.7,0.1,1.2,0.1l0,0c0,0.6-0.1,1.2-0.1,1.8
				C112.7,23.3,112.3,23.3,111.9,23.2 M110.5,21.2c0.4,0.1,0.8,0.1,1.1,0.2l-0.1,1.8c-0.4-0.1-0.8-0.1-1.2-0.2
				C110.4,22.4,110.5,21.8,110.5,21.2 M111.8,18.8c0,0.6-0.1,1.1-0.1,1.6l0,0.6c-0.4-0.1-0.7-0.1-1.1-0.2l0,0c0,0,0-0.1,0-0.1
				C110.6,19.6,111.4,19.1,111.8,18.8 M113.2,21c0,0,0,0.1,0,0.1c-0.4,0-0.8-0.1-1.2-0.1l0-0.7c0-0.5,0.1-0.9,0.1-1.5
				C112.4,19,113.3,19.8,113.2,21 M114.1,21.1c0-2.1-1.8-3.3-2-3.4c-0.2,0.1-2.2,0.8-2.4,2.8c-0.1,1-0.2,2.1-0.3,3.1
				c1.5,0.3,3.1,0.5,4.6,0.6C114,23.2,114.1,22.2,114.1,21.1"/>
			<g id="Group-29" transform="translate(0.000000, 46.772618)">
				<g id="Clip-28">
				</g>
				<defs>
					<filter id="Adobe_OpacityMaskFilter" filterUnits="userSpaceOnUse" x="0" y="0.1" width="15.4" height="20.1">
						<feColorMatrix  type="matrix" values="1 0 0 0 0  0 1 0 0 0  0 0 1 0 0  0 0 0 1 0"/>
					</filter>
				</defs>
				<mask maskUnits="userSpaceOnUse" x="0" y="0.1" width="15.4" height="20.1" id="mask-2">
					<g class="st0">
						<polygon id="path-1" class="st1" points="0,0.1 0,20.3 15.4,20.3 15.4,0.1 						"/>
					</g>
				</mask>
				<polygon id="Fill-27" class="st2" points="0.4,0.1 15,0.1 15.4,6.7 15.1,6.7 12.9,1.1 9.4,0.8 9.4,19.4 11.7,20 11.7,20.3 
					3.7,20.3 3.7,20 6,19.4 6,0.8 2.5,1.1 0.3,6.7 0,6.7 				"/>
			</g>
			<path id="Fill-30" d="M32.8,57c0-5.7-1.1-9.9-4.8-9.9c-3.3,0-4.8,4-4.8,9.8c0,5.7,1.1,9.9,4.8,9.9C31.4,66.9,32.8,62.8,32.8,57
				 M36.5,57c0,6-3.4,10.6-8.5,10.6c-5.2,0-8.7-4.5-8.7-10.7c0-6,3.6-10.6,8.6-10.6C33.1,46.4,36.5,50.8,36.5,57"/>
			<path id="Fill-32" d="M43.1,58.6l0.2-10.7L41,47.2v-0.3h8v0.3l-2.3,0.6l-0.2,11c-0.1,4.7,1.5,7.4,4.6,7.4c3,0,4.9-2.6,4.7-7.4
				l-0.4-10.9L52,47.2v-0.3h7v0.3l-2.3,0.6l0.1,10.9c0,5.6-2.1,8.9-6.5,8.9C45.7,67.6,43,64.4,43.1,58.6"/>
			<path id="Fill-34" d="M74.1,52.4c0-2.4-1-4.4-3.9-4.6l-1.8-0.1v9.3l1.8-0.1C73.2,56.6,74.1,54.8,74.1,52.4L74.1,52.4z M62.6,67.1
				v-0.3l2.3-0.6V47.8l-2.3-0.6v-0.3h7.2c5.4,0,8,2.3,8,5.4c0,2.7-1.7,4.5-5.6,5.1v0.1l3,1.8l2.7,4.5c1,1.7,1.6,2.6,3.3,3v0.3
				c-4.2,0.6-5.6-0.5-7-3.1l-3.1-6.2l-2.7-0.2v8.6l2.3,0.6v0.3H62.6z"/>
			<path id="Fill-36" d="M92.3,50.7l-1.1-0.1v12.2l1.2-0.1c2.4-0.2,3.7-2.6,3.7-6C96,53.3,94.7,50.9,92.3,50.7 M92.2,63.4h-5.6v-0.3
				l1.8-0.4v-12l-1.8-0.4V50h5.5c4,0,7,2.4,7,6.7C99.1,61,96.1,63.4,92.2,63.4"/>
			<path id="Fill-38" d="M100.9,56.3c1.3-1.8,2.1-3.9,2.1-5.6l-1.6-0.4v-0.3h4.2c-0.5,2.6-2.1,4.5-4.4,6.5L100.9,56.3z"/>
			<path id="Fill-40" d="M118.1,58.7l-2.7-8l-2.7,7.9l2.8,2.1L118.1,58.7z M107.3,67.1v-0.3l1.6-0.6l7.5-20.3h0.8l7.2,20.3l1.5,0.6
				v0.3h-7.5v-0.3l2.2-0.6l-2.3-6.7l-2.9,2.7l-3-2.7l-2.4,6.8l3.1,0.6v0.3H107.3z"/>
			<path id="Fill-42" d="M140.8,52.4c0-2.4-1-4.4-3.9-4.6l-1.8-0.1v9.3l1.8-0.1C139.9,56.6,140.8,54.8,140.8,52.4L140.8,52.4z
				 M129.4,67.1v-0.3l2.3-0.6V47.8l-2.3-0.6v-0.3h7.2c5.4,0,8,2.3,8,5.4c0,2.7-1.7,4.5-5.6,5.1v0.1l3,1.8l2.7,4.5
				c1,1.7,1.6,2.6,3.3,3v0.3c-4.2,0.6-5.6-0.5-7-3.1l-3.1-6.2l-2.7-0.2v8.6l2.3,0.6v0.3H129.4z"/>
			<path id="Fill-44" d="M167.1,67.6h-0.4l-1.9-1c-1.2,0.6-2.9,1-4.5,1c-6.2,0-9.2-4.9-9.2-10.7c0-6,3.4-10.6,9.6-10.6
				c1.6,0,3.1,0.3,4.4,0.9l1.4-1.2l0.5,6.7h-0.3l-2.3-4.3c-0.9-0.7-2.2-1.1-3.8-1.1c-4.1,0-5.7,4.1-5.7,9.7c0,5.4,1.8,9.8,5.7,9.8
				c1,0,2-0.2,2.9-0.5V59l-3-0.6v-0.3h8.4v0.3l-1.9,0.6V67.6z"/>
			<polygon id="Fill-46" points="188.1,67.1 173.7,67.1 173.7,66.7 175.9,66.2 175.9,47.8 173.7,47.2 173.7,46.9 187.6,46.9 
				188.1,52.7 187.8,52.7 185.5,48 179.4,47.6 179.4,56.4 184.4,56.3 185.7,53.6 185.9,53.6 185.9,60 185.7,60 184.4,57.2 
				179.4,57.1 179.4,66.4 186,66 188.5,60.4 188.8,60.4 			"/>
			<polygon id="Fill-48" points="201.2,67.1 194.1,67.1 194.1,66.7 196.4,66.2 196.4,48.3 194.1,47.2 194.1,46.9 199.9,46.9 
				209.8,63.2 209.5,47.8 205.9,47.2 205.9,46.9 213,46.9 213,47.2 210.7,47.8 210.7,64.6 212,66.7 212,67.1 208.3,67.1 197.2,49 
				197.5,66.2 201.2,66.7 			"/>
			<g id="Group-52" transform="translate(216.673203, 46.772618)">
				<g id="Clip-51">
				</g>
				<defs>
					<filter id="Adobe_OpacityMaskFilter_1_" filterUnits="userSpaceOnUse" x="0.1" y="0.1" width="15.4" height="20.1">
						<feColorMatrix  type="matrix" values="1 0 0 0 0  0 1 0 0 0  0 0 1 0 0  0 0 0 1 0"/>
					</filter>
				</defs>
				<mask maskUnits="userSpaceOnUse" x="0.1" y="0.1" width="15.4" height="20.1" id="mask-4">
					<g class="st3">
						<polygon id="path-3" class="st1" points="15.5,20.3 15.5,0.1 0.1,0.1 0.1,20.3 						"/>
					</g>
				</mask>
				<polygon id="Fill-50" class="st4" points="0.5,0.1 15.1,0.1 15.5,6.7 15.2,6.7 12.9,1.1 9.5,0.8 9.5,19.4 11.8,20 11.8,20.3 
					3.7,20.3 3.7,20 6,19.4 6,0.8 2.6,1.1 0.4,6.7 0.1,6.7 				"/>
			</g>
		</g>
	</g>
</g>
</svg>
